<?xml version="1.0" encoding="UTF-8"?><svg xmlns="http://www.w3.org/2000/svg" xmlns:xlink="http://www.w3.org/1999/xlink" fill-opacity="1" color-rendering="auto" color-interpolation="auto" text-rendering="auto" stroke="black" stroke-linecap="square" width="927" stroke-miterlimit="10" shape-rendering="auto" stroke-opacity="1" fill="black" stroke-dasharray="none" font-weight="normal" stroke-width="1" height="1107" font-family="'Dialog'" font-style="normal" stroke-linejoin="miter" font-size="12px" stroke-dashoffset="0" image-rendering="auto">
  <!--Generated by ySVG 2.6-->
  <defs id="genericDefs"/>
  <g>
    <g fill="url(#linearGradient1)" text-rendering="geometricPrecision" shape-rendering="geometricPrecision" transform="matrix(1,0,0,1,-248,163)" stroke="url(#linearGradient1)">
      <path d="M360 785.25 C368.265 749.5 627.235 749.5 635.5 785.25 L635.5 892.5 C627.235 928.25 368.265 928.25 360 892.5 Z" stroke="none" clip-path="url(#clipPath2)"/>
    </g>
    <g text-rendering="geometricPrecision" stroke-miterlimit="1.45" shape-rendering="geometricPrecision" transform="matrix(1,0,0,1,-248,163)" stroke-linecap="butt">
      <path fill="none" d="M360 785.25 C368.265 749.5 627.235 749.5 635.5 785.25 L635.5 892.5 C627.235 928.25 368.265 928.25 360 892.5 Z" clip-path="url(#clipPath2)"/>
      <path fill="none" d="M635.5 785.25 C627.235 821 368.265 821 360 785.25" clip-path="url(#clipPath2)"/>
      <text x="408.8145" font-size="40px" y="854.5879" clip-path="url(#clipPath2)" font-family="sans-serif" stroke="none" xml:space="preserve">MongoDB</text>
    </g>
    <g fill="url(#linearGradient2)" text-rendering="geometricPrecision" shape-rendering="geometricPrecision" transform="matrix(1,0,0,1,-248,163)" stroke="url(#linearGradient2)">
      <path d="M360 532.9688 C368.31 521.9688 628.69 521.9688 637 532.9688 L637 565.9688 C628.69 576.9688 368.31 576.9688 360 565.9688 Z" stroke="none" clip-path="url(#clipPath2)"/>
    </g>
    <g text-rendering="geometricPrecision" stroke-miterlimit="1.45" shape-rendering="geometricPrecision" transform="matrix(1,0,0,1,-248,163)" stroke-linecap="butt">
      <path fill="none" d="M360 532.9688 C368.31 521.9688 628.69 521.9688 637 532.9688 L637 565.9688 C628.69 576.9688 368.31 576.9688 360 565.9688 Z" clip-path="url(#clipPath2)"/>
      <path fill="none" d="M637 532.9688 C628.69 543.9688 368.31 543.9688 360 532.9688" clip-path="url(#clipPath2)"/>
      <text x="428.4512" font-size="30px" y="561.2534" clip-path="url(#clipPath2)" font-family="sans-serif" stroke="none" xml:space="preserve">Mongoose</text>
    </g>
    <g fill="url(#linearGradient3)" text-rendering="geometricPrecision" shape-rendering="geometricPrecision" transform="matrix(1,0,0,1,-248,163)" stroke="url(#linearGradient3)">
      <path d="M360 453.9688 C368.265 436.9688 627.235 436.9688 635.5 453.9688 L635.5 504.9688 C627.235 521.9688 368.265 521.9688 360 504.9688 Z" stroke="none" clip-path="url(#clipPath2)"/>
    </g>
    <g text-rendering="geometricPrecision" stroke-miterlimit="1.45" shape-rendering="geometricPrecision" transform="matrix(1,0,0,1,-248,163)" stroke-linecap="butt">
      <path fill="none" d="M360 453.9688 C368.265 436.9688 627.235 436.9688 635.5 453.9688 L635.5 504.9688 C627.235 521.9688 368.265 521.9688 360 504.9688 Z" clip-path="url(#clipPath2)"/>
      <path fill="none" d="M635.5 453.9688 C627.235 470.9688 368.265 470.9688 360 453.9688" clip-path="url(#clipPath2)"/>
      <text x="378.5264" font-size="30px" y="472.877" clip-path="url(#clipPath2)" font-family="sans-serif" stroke="none" xml:space="preserve">express-valodator</text>
      <text x="432.7256" font-size="30px" y="509.6299" clip-path="url(#clipPath2)" font-family="sans-serif" stroke="none" xml:space="preserve"> / express</text>
    </g>
    <g fill="url(#linearGradient4)" text-rendering="geometricPrecision" shape-rendering="geometricPrecision" transform="matrix(1,0,0,1,-248,163)" stroke="url(#linearGradient4)">
      <path d="M360 391.5438 C368.265 382.8438 627.235 382.8438 635.5 391.5438 L635.5 417.6437 C627.235 426.3438 368.265 426.3438 360 417.6437 Z" stroke="none" clip-path="url(#clipPath2)"/>
    </g>
    <g text-rendering="geometricPrecision" stroke-miterlimit="1.45" shape-rendering="geometricPrecision" transform="matrix(1,0,0,1,-248,163)" stroke-linecap="butt">
      <path fill="none" d="M360 391.5438 C368.265 382.8438 627.235 382.8438 635.5 391.5438 L635.5 417.6437 C627.235 426.3438 368.265 426.3438 360 417.6437 Z" clip-path="url(#clipPath2)"/>
      <path fill="none" d="M635.5 391.5438 C627.235 400.2437 368.265 400.2437 360 391.5438" clip-path="url(#clipPath2)"/>
      <text x="469.4126" font-size="30px" y="416.3784" clip-path="url(#clipPath2)" font-family="sans-serif" stroke="none" xml:space="preserve">cors</text>
    </g>
    <g fill="url(#linearGradient5)" text-rendering="geometricPrecision" shape-rendering="geometricPrecision" transform="matrix(1,0,0,1,-248,163)" stroke="url(#linearGradient5)">
      <path d="M360 274.75 C368.22 262.75 625.78 262.75 634 274.75 L634 310.75 C625.78 322.75 368.22 322.75 360 310.75 Z" stroke="none" clip-path="url(#clipPath2)"/>
    </g>
    <g text-rendering="geometricPrecision" stroke-miterlimit="1.45" shape-rendering="geometricPrecision" transform="matrix(1,0,0,1,-248,163)" stroke-linecap="butt">
      <path fill="none" d="M360 274.75 C368.22 262.75 625.78 262.75 634 274.75 L634 310.75 C625.78 322.75 368.22 322.75 360 310.75 Z" clip-path="url(#clipPath2)"/>
      <path fill="none" d="M634 274.75 C625.78 286.75 368.22 286.75 360 274.75" clip-path="url(#clipPath2)"/>
      <text x="461.9829" font-size="30px" y="304.5347" clip-path="url(#clipPath2)" font-family="sans-serif" stroke="none" xml:space="preserve">axios</text>
    </g>
    <g fill="url(#linearGradient6)" text-rendering="geometricPrecision" shape-rendering="geometricPrecision" transform="matrix(1,0,0,1,-248,163)" stroke="url(#linearGradient6)">
      <path d="M360 185.475 C368.265 167.875 627.235 167.875 635.5 185.475 L635.5 238.275 C627.235 255.875 368.265 255.875 360 238.275 Z" stroke="none" clip-path="url(#clipPath2)"/>
    </g>
    <g text-rendering="geometricPrecision" stroke-miterlimit="1.45" shape-rendering="geometricPrecision" transform="matrix(1,0,0,1,-248,163)" stroke-linecap="butt">
      <path fill="none" d="M360 185.475 C368.265 167.875 627.235 167.875 635.5 185.475 L635.5 238.275 C627.235 255.875 368.265 255.875 360 238.275 Z" clip-path="url(#clipPath2)"/>
      <path fill="none" d="M635.5 185.475 C627.235 203.075 368.265 203.075 360 185.475" clip-path="url(#clipPath2)"/>
      <text x="381.0166" font-size="30px" y="223.6597" clip-path="url(#clipPath2)" font-family="sans-serif" stroke="none" xml:space="preserve">redux/redux-saga</text>
    </g>
    <g fill="url(#linearGradient7)" text-rendering="geometricPrecision" shape-rendering="geometricPrecision" transform="matrix(1,0,0,1,-248,163)" stroke="url(#linearGradient7)">
      <path d="M360 107 C368.31 91 628.69 91 637 107 L637 155 C628.69 171 368.31 171 360 155 Z" stroke="none" clip-path="url(#clipPath2)"/>
    </g>
    <g text-rendering="geometricPrecision" stroke-miterlimit="1.45" shape-rendering="geometricPrecision" transform="matrix(1,0,0,1,-248,163)" stroke-linecap="butt">
      <path fill="none" d="M360 107 C368.31 91 628.69 91 637 107 L637 155 C628.69 171 368.31 171 360 155 Z" clip-path="url(#clipPath2)"/>
      <path fill="none" d="M637 107 C628.69 123 368.31 123 360 107" clip-path="url(#clipPath2)"/>
      <text x="454.0371" font-size="40px" y="146.7129" clip-path="url(#clipPath2)" font-family="sans-serif" stroke="none" xml:space="preserve">react</text>
    </g>
    <g fill="url(#linearGradient8)" text-rendering="geometricPrecision" shape-rendering="geometricPrecision" transform="matrix(1,0,0,1,-248,163)" stroke="url(#linearGradient8)">
      <path d="M360 46.6019 C368.31 35.6019 628.69 35.6019 637 46.6019 L637 79.6019 C628.69 90.6019 368.31 90.6019 360 79.6019 Z" stroke="none" clip-path="url(#clipPath2)"/>
    </g>
    <g text-rendering="geometricPrecision" stroke-miterlimit="1.45" shape-rendering="geometricPrecision" transform="matrix(1,0,0,1,-248,163)" stroke-linecap="butt">
      <path fill="none" d="M360 46.6019 C368.31 35.6019 628.69 35.6019 637 46.6019 L637 79.6019 C628.69 90.6019 368.31 90.6019 360 79.6019 Z" clip-path="url(#clipPath2)"/>
      <path fill="none" d="M637 46.6019 C628.69 57.6019 368.31 57.6019 360 46.6019" clip-path="url(#clipPath2)"/>
      <text x="414.4546" font-size="25px" y="72.9224" clip-path="url(#clipPath2)" font-family="sans-serif" stroke="none" xml:space="preserve">react-final-form</text>
    </g>
    <g fill="url(#linearGradient9)" text-rendering="geometricPrecision" shape-rendering="geometricPrecision" transform="matrix(1,0,0,1,-248,163)" stroke="url(#linearGradient9)">
      <path d="M360 -96.1588 C368.31 -129.099 628.69 -129.099 637 -96.1588 L637 2.6617 C628.69 35.6019 368.31 35.6019 360 2.6617 Z" stroke="none" clip-path="url(#clipPath2)"/>
    </g>
    <g text-rendering="geometricPrecision" stroke-miterlimit="1.45" shape-rendering="geometricPrecision" transform="matrix(1,0,0,1,-248,163)" stroke-linecap="butt">
      <path fill="none" d="M360 -96.1588 C368.31 -129.099 628.69 -129.099 637 -96.1588 L637 2.6617 C628.69 35.6019 368.31 35.6019 360 2.6617 Z" clip-path="url(#clipPath2)"/>
      <path fill="none" d="M637 -96.1588 C628.69 -63.2186 368.31 -63.2186 360 -96.1588" clip-path="url(#clipPath2)"/>
      <text x="363.4121" font-size="30px" y="-53.3403" clip-path="url(#clipPath2)" font-family="sans-serif" stroke="none" xml:space="preserve">bootstrap/bootwatch</text>
      <text x="423.5" font-size="30px" y="-16.5874" clip-path="url(#clipPath2)" font-family="sans-serif" stroke="none" xml:space="preserve"> mui/mui-rff</text>
    </g>
    <g text-rendering="geometricPrecision" shape-rendering="geometricPrecision" transform="matrix(1,0,0,1,841.5039,210.6019)">
      <g clip-path="url(#clipPath3)">
        <svg xml:space="preserve" opacity="1" writing-mode="lr-tb" stop-color="rgb(0, 0, 0)" shape-rendering="auto" glyph-orientation-horizontal="0deg" color-profile="auto" lighting-color="rgb(255, 255, 255)" color="rgb(0, 0, 0)" font-weight="400" alignment-baseline="auto" font-style="normal" version="1.1" color-interpolation-filters="linearrgb" text-anchor="start" stroke-linecap="butt" color-interpolation="srgb" font-variant="normal" word-spacing="normal" fill-opacity="1" text-rendering="auto" clip-path="none" text-decoration="none" letter-spacing="normal" viewBox="-1 -0.044 71 43" glyph-orientation-vertical="auto" display="inline" font-size-adjust="none" overflow="hidden" fill="rgb(0, 0, 0)" font-stretch="normal" stroke-dasharray="none" stroke-miterlimit="4" stop-opacity="1" color-rendering="auto" font-size="12" pointer-events="visiblepainted" mask="none" direction="ltr" baseline-shift="baseline" enable-background="new -1 -0.044 71 43" fill-rule="nonzero" image-rendering="auto" stroke-dashoffset="0" width="71px" marker-end="none" clip="auto" cursor="auto" stroke="none" filter="none" visibility="visible" kerning="auto" stroke-width="1" font-family="&quot;Arial&quot;,&quot;Helvetica&quot;,sans-serif" flood-opacity="1" clip-rule="nonzero" src="none" height="43px" unicode-bidi="normal" stroke-linejoin="miter" stroke-opacity="1" flood-color="rgb(0, 0, 0)" dominant-baseline="auto" marker-start="none" x="0px" marker-mid="none" y="0px">
<defs>
<linearGradient x1="360" gradientUnits="userSpaceOnUse" x2="635.5" y1="749.5" y2="928.25" id="linearGradient1" spreadMethod="reflect"><stop stop-opacity="1" stop-color="red" offset="0%"/><stop stop-opacity="1" stop-color="rgb(183,201,227)" offset="100%"/></linearGradient><linearGradient x1="360" gradientUnits="userSpaceOnUse" x2="637" y1="521.9688" y2="576.9688" id="linearGradient2" spreadMethod="reflect"><stop stop-opacity="1" stop-color="red" offset="0%"/><stop stop-opacity="1" stop-color="rgb(183,201,227)" offset="100%"/></linearGradient><linearGradient x1="360" gradientUnits="userSpaceOnUse" x2="635.5" y1="436.9688" y2="521.9688" id="linearGradient3" spreadMethod="reflect"><stop stop-opacity="1" stop-color="teal" offset="0%"/><stop stop-opacity="1" stop-color="rgb(183,201,227)" offset="100%"/></linearGradient><linearGradient x1="360" gradientUnits="userSpaceOnUse" x2="635.5" y1="382.8438" y2="426.3438" id="linearGradient4" spreadMethod="reflect"><stop stop-opacity="1" stop-color="purple" offset="0%"/><stop stop-opacity="1" stop-color="rgb(183,201,227)" offset="100%"/></linearGradient><linearGradient x1="360" gradientUnits="userSpaceOnUse" x2="634" y1="262.75" y2="322.75" id="linearGradient5" spreadMethod="reflect"><stop stop-opacity="1" stop-color="rgb(153,51,102)" offset="0%"/><stop stop-opacity="1" stop-color="rgb(183,201,227)" offset="100%"/></linearGradient><linearGradient x1="360" gradientUnits="userSpaceOnUse" x2="635.5" y1="167.875" y2="255.875" id="linearGradient6" spreadMethod="reflect"><stop stop-opacity="1" stop-color="green" offset="0%"/><stop stop-opacity="1" stop-color="rgb(183,201,227)" offset="100%"/></linearGradient><linearGradient x1="360" gradientUnits="userSpaceOnUse" x2="637" y1="91" y2="171" id="linearGradient7" spreadMethod="reflect"><stop stop-opacity="1" stop-color="green" offset="0%"/><stop stop-opacity="1" stop-color="rgb(183,201,227)" offset="100%"/></linearGradient><linearGradient x1="360" gradientUnits="userSpaceOnUse" x2="637" y1="35.6019" y2="90.6019" id="linearGradient8" spreadMethod="reflect"><stop stop-opacity="1" stop-color="lime" offset="0%"/><stop stop-opacity="1" stop-color="rgb(183,201,227)" offset="100%"/></linearGradient><linearGradient x1="360" gradientUnits="userSpaceOnUse" x2="637" y1="-129.099" y2="35.6019" id="linearGradient9" spreadMethod="reflect"><stop stop-opacity="1" stop-color="yellow" offset="0%"/><stop stop-opacity="1" stop-color="yellow" offset="100%"/></linearGradient><linearGradient x1="727.2271" gradientUnits="userSpaceOnUse" x2="1001.2271" y1="-4.3981" y2="174.3519" id="linearGradient10" spreadMethod="reflect"><stop stop-opacity="1" stop-color="white" offset="0%"/><stop stop-opacity="1" stop-color="lime" offset="100%"/></linearGradient><linearGradient x1="727.2271" gradientUnits="userSpaceOnUse" x2="1001.2271" y1="390.0938" y2="568.8438" id="linearGradient11" spreadMethod="reflect"><stop stop-opacity="1" stop-color="white" offset="0%"/><stop stop-opacity="1" stop-color="rgb(255,153,204)" offset="100%"/></linearGradient><clipPath clipPathUnits="userSpaceOnUse" id="clipPath1"><path d="M0 0 L927 0 L927 1107 L0 1107 L0 0 Z"/></clipPath><clipPath clipPathUnits="userSpaceOnUse" id="clipPath2"><path d="M248 -163 L1175 -163 L1175 944 L248 944 L248 -163 Z"/></clipPath><clipPath clipPathUnits="userSpaceOnUse" id="clipPath3"><path d="M-841.5038 -210.6019 L85.4961 -210.6019 L85.4961 896.3981 L-841.5038 896.3981 L-841.5038 -210.6019 Z"/></clipPath><clipPath clipPathUnits="userSpaceOnUse" id="clipPath4"><path d="M-843.4976 -489.143 L83.5023 -489.143 L83.5023 617.857 L-843.4976 617.857 L-843.4976 -489.143 Z"/></clipPath><clipPath clipPathUnits="userSpaceOnUse" id="clipPath5"><path d="M-841.4348 -416.6993 L85.5652 -416.6993 L85.5652 81.6797 L-841.4348 81.6797 L-841.4348 -416.6993 Z"/></clipPath><clipPath clipPathUnits="userSpaceOnUse" id="clipPath6"><path d="M331.9332 -29.9111 L331.9332 897.0889 L-775.0668 897.0889 L-775.0668 -29.9111 L331.9332 -29.9111 Z"/></clipPath><clipPath clipPathUnits="userSpaceOnUse" id="clipPath7"><path d="M724.6324 -29.9111 L724.6324 897.0889 L-382.3676 897.0889 L-382.3676 -29.9111 L724.6324 -29.9111 Z"/></clipPath></defs>
<linearGradient gradientTransform="matrix(1 0 0 1 -760.5996 -1807.4023)" x1="807.2808" x2="783.5425" gradientUnits="userSpaceOnUse" y1="1849.3247" y2="1849.3247" id="svg1.SVGID_1_">
	<stop offset="0" style="stop-color:#4D4D4D"/>
	<stop offset="1" style="stop-color:#999999"/>
</linearGradient>
<path fill="url(#svg1.SVGID_1_)" d="M46.527,40.407c0,0.965-6.758,1.404-12.371,1.404c-3.889,0-10.914-0.349-11.367-1.268  c0,0.446,0,1.502,0,1.661c0,0.726,4.803,1.233,11.357,1.233c6.554,0,12.381-0.643,12.381-1.36  C46.527,41.921,46.527,40.87,46.527,40.407z" display="none"/>
<path fill="#808080" d="M34.658,39.2c6.556,0,11.869,0.584,11.869,1.307c0,0.721-5.313,1.42-11.869,1.42  c-6.701,0-11.869-0.697-11.869-1.42S28.104,39.2,34.658,39.2z" display="none"/>
<linearGradient gradientTransform="matrix(1 0 0 1 -760.5996 -1807.4023)" x1="797.8442" x2="792.8472" gradientUnits="userSpaceOnUse" y1="1843.356" y2="1843.356" id="svg1.SVGID_2_">
	<stop offset="0" style="stop-color:#999999"/>
	<stop offset="0.0417" style="stop-color:#8D8D8D"/>
	<stop offset="0.1617" style="stop-color:#717171"/>
	<stop offset="0.2821" style="stop-color:#5D5D5D"/>
	<stop offset="0.4021" style="stop-color:#515151"/>
	<stop offset="0.5212" style="stop-color:#4D4D4D"/>
	<stop offset="0.6202" style="stop-color:#565656"/>
	<stop offset="0.7817" style="stop-color:#6E6E6E"/>
	<stop offset="0.9844" style="stop-color:#969696"/>
	<stop offset="1" style="stop-color:#999999"/>
</linearGradient>
<path fill="url(#svg1.SVGID_2_)" d="M37.212,40.79c0,0-1.477,0.096-2.498,0.096s-2.499-0.096-2.499-0.096v-9.768h4.997  V40.79z" display="none"/>
<linearGradient y2="42.0806" id="svg1.SVGID_3_" x1="52.1938" gradientUnits="userSpaceOnUse" x2="17.5693" y1="42.0806">
	<stop offset="0" style="stop-color:#999999"/>
	<stop offset="0.0417" style="stop-color:#8D8D8D"/>
	<stop offset="0.1617" style="stop-color:#717171"/>
	<stop offset="0.2821" style="stop-color:#5D5D5D"/>
	<stop offset="0.4021" style="stop-color:#515151"/>
	<stop offset="0.5212" style="stop-color:#4D4D4D"/>
	<stop offset="0.6202" style="stop-color:#565656"/>
	<stop offset="0.7817" style="stop-color:#6E6E6E"/>
	<stop offset="0.9844" style="stop-color:#969696"/>
	<stop offset="1" style="stop-color:#999999"/>
</linearGradient>
<path fill="url(#svg1.SVGID_3_)" d="M51.97,42.018c0,0.516-0.45,0.938-1,0.938H18.345c-0.55,0-1-0.422-1-0.938s0.249-0.813,0.249-0.813  l34.146,0.028C51.74,41.234,51.97,41.502,51.97,42.018z"/>
<linearGradient y2="39.5415" id="svg1.SVGID_4_" x1="52.0024" gradientUnits="userSpaceOnUse" x2="17.7529" y1="39.5415">
	<stop offset="0" style="stop-color:#999999"/>
	<stop offset="0.0417" style="stop-color:#8D8D8D"/>
	<stop offset="0.1617" style="stop-color:#717171"/>
	<stop offset="0.2821" style="stop-color:#5D5D5D"/>
	<stop offset="0.4021" style="stop-color:#515151"/>
	<stop offset="0.5212" style="stop-color:#4D4D4D"/>
	<stop offset="0.6202" style="stop-color:#565656"/>
	<stop offset="0.7817" style="stop-color:#6E6E6E"/>
	<stop offset="0.9844" style="stop-color:#969696"/>
	<stop offset="1" style="stop-color:#999999"/>
</linearGradient>
<path fill="url(#svg1.SVGID_4_)" d="M51.782,41.286h-34.25l2.179-2.714c0.349-0.426,1.083-0.774,1.633-0.774h26.625  c0.55,0,1.285,0.349,1.633,0.774L51.782,41.286z"/>
<linearGradient gradientTransform="matrix(1 0 0 1 -760.5996 -1807.4023)" x1="797.8442" x2="792.8472" gradientUnits="userSpaceOnUse" y1="1842.3892" y2="1842.3892" id="svg1.SVGID_5_">
	<stop offset="0" style="stop-color:#999999"/>
	<stop offset="0.0417" style="stop-color:#8D8D8D"/>
	<stop offset="0.1617" style="stop-color:#717171"/>
	<stop offset="0.2821" style="stop-color:#5D5D5D"/>
	<stop offset="0.4021" style="stop-color:#515151"/>
	<stop offset="0.5212" style="stop-color:#4D4D4D"/>
	<stop offset="0.6202" style="stop-color:#565656"/>
	<stop offset="0.7817" style="stop-color:#6E6E6E"/>
	<stop offset="0.9844" style="stop-color:#969696"/>
	<stop offset="1" style="stop-color:#999999"/>
</linearGradient>
<path fill="url(#svg1.SVGID_5_)" d="M37.212,39.694c0,0-1.478,0.354-2.499,0.354c-1.021,0-2.499-0.354-2.499-0.354v-9.768h4.997V39.694z"/>
<radialGradient gradientTransform="matrix(1.513 0 0 1 -973.8635 -1807.4023)" id="svg1.SVGID_6_" r="24.0778" cx="657.0923" gradientUnits="userSpaceOnUse" cy="1817.3071">
	<stop offset="0" style="stop-color:#F2F2F2"/>
	<stop offset="1" style="stop-color:#666666"/>
</radialGradient>
<path fill="url(#svg1.SVGID_6_)" d="M0.14,2.14c0-1.1,1.184-2,2.631-2h63.474c1.446,0,2.631,0.9,2.631,2v30.073c0,1.101-1.185,2-2.631,2  H2.771c-1.447,0-2.631-0.899-2.631-2V2.14z"/>
<path stroke-linecap="round" fill="none" stroke-linejoin="round" d="  M0.14,2.14c0-1.1,1.184-2,2.631-2h63.474c1.446,0,2.631,0.9,2.631,2v30.073c0,1.101-1.185,2-2.631,2H2.771  c-1.447,0-2.631-0.899-2.631-2V2.14z" stroke="#666666" stroke-width="0.2794" stroke-miterlimit="10"/>
<radialGradient gradientTransform="matrix(1.5073 0 0 1 -921.6763 -1807.4023)" gradientUnits="userSpaceOnUse" r="53.3331" cx="635.0688" id="svg1.SVGID_7_" cy="1809.1597" fx="677.0258" fy="1801.9722">
	<stop offset="0" style="stop-color:#4D4D4D"/>
	<stop offset="1" style="stop-color:#999999"/>
</radialGradient>
<path fill="url(#svg1.SVGID_7_)" d="M2.813,3.161c0-1.1,1.136-2,2.525-2h58.636c1.389,0,2.525,0.9,2.525,2v27.805c0,1.1-1.137,2-2.525,2  H5.339c-1.389,0-2.525-0.9-2.525-2V3.161z"/>
<radialGradient gradientTransform="matrix(1.5102 0 0 1 -924.7913 -1807.4023)" id="svg1.SVGID_8_" r="34.1874" cx="636.0776" gradientUnits="userSpaceOnUse" cy="1809.2437">
	<stop offset="0" style="stop-color:#9CD7FF"/>
	<stop offset="1" style="stop-color:#3C89C9"/>
</radialGradient>
<path fill="url(#svg1.SVGID_8_)" d="M3.439,3.616c0-1.1,1.14-2,2.533-2h57.371c1.394,0,2.532,0.9,2.532,2V30.51c0,1.1-1.139,2-2.532,2  H5.972c-1.393,0-2.533-0.9-2.533-2V3.616z"/>
<path fill="#F2F2F2" d="M3.356,23.653V3.616c0-1.1,1.143-2,2.54-2h57.522  c1.398,0,2.54,0.9,2.54,2v13.539c0,0-17.706,2.838-34.415,4.549C14.834,23.414,3.356,23.653,3.356,23.653z" enable-background="new    " opacity="0.24"/>
</svg>
      </g>
    </g>
    <g text-rendering="geometricPrecision" shape-rendering="geometricPrecision" transform="matrix(1,0,0,1,843.4977,489.143)">
      <g clip-path="url(#clipPath4)">
        <svg xml:space="preserve" opacity="1" writing-mode="lr-tb" stop-color="rgb(0, 0, 0)" shape-rendering="auto" glyph-orientation-horizontal="0deg" color-profile="auto" lighting-color="rgb(255, 255, 255)" color="rgb(0, 0, 0)" font-weight="400" alignment-baseline="auto" font-style="normal" version="1.1" color-interpolation-filters="linearrgb" text-anchor="start" stroke-linecap="butt" color-interpolation="srgb" font-variant="normal" word-spacing="normal" fill-opacity="1" text-rendering="auto" clip-path="none" text-decoration="none" letter-spacing="normal" viewBox="-0.815 -0.706 67 68" glyph-orientation-vertical="auto" display="inline" font-size-adjust="none" overflow="hidden" fill="rgb(0, 0, 0)" font-stretch="normal" stroke-dasharray="none" stroke-miterlimit="4" stop-opacity="1" color-rendering="auto" font-size="12" pointer-events="visiblepainted" mask="none" direction="ltr" baseline-shift="baseline" enable-background="new -0.815 -0.706 67 68" fill-rule="nonzero" image-rendering="auto" stroke-dashoffset="0" width="67px" marker-end="none" clip="auto" cursor="auto" stroke="none" filter="none" visibility="visible" kerning="auto" stroke-width="1" font-family="&quot;Arial&quot;,&quot;Helvetica&quot;,sans-serif" flood-opacity="1" clip-rule="nonzero" src="none" height="68px" unicode-bidi="normal" stroke-linejoin="miter" stroke-opacity="1" flood-color="rgb(0, 0, 0)" dominant-baseline="auto" marker-start="none" x="0px" marker-mid="none" y="0px">
<defs>
</defs>
<path fill="#9CD7FF" d="M7.262,43.647c-1.538-3.435-2.401-7.236-2.401-11.245c0-15.214,12.333-27.543,27.545-27.543  s27.544,12.331,27.544,27.543c0,4.008-0.861,7.81-2.399,11.245l4.415,2.029c1.824-4.051,2.846-8.543,2.846-13.272  C64.812,14.508,50.302,0,32.406,0C14.509,0,0,14.508,0,32.405c0,4.729,1.022,9.222,2.845,13.272L7.262,43.647z"/>
<path fill="#B5E1FF" d="M16.102,39.588c-0.97-2.198-1.52-4.626-1.52-7.183c0-9.845,7.979-17.823,17.824-17.823  c9.841,0,17.822,7.979,17.822,17.823c0,2.559-0.55,4.985-1.52,7.183l4.412,2.026c1.254-2.816,1.967-5.928,1.967-9.209  c0-12.527-10.155-22.685-22.682-22.685C19.877,9.72,9.72,19.876,9.72,32.405c0,3.282,0.712,6.395,1.966,9.211L16.102,39.588z"/>
<path fill="#CDEBFF" d="M24.933,35.534c-0.404-0.963-0.628-2.021-0.628-3.129c0-4.473,3.627-8.1,8.101-8.1s8.101,3.627,8.101,8.1  c0,1.11-0.223,2.167-0.627,3.129l4.416,2.027c0.687-1.582,1.072-3.322,1.072-5.157c0-7.158-5.804-12.961-12.961-12.961  c-7.158,0-12.961,5.803-12.961,12.961c0,1.834,0.385,3.575,1.072,5.159L24.933,35.534z"/>
<linearGradient gradientTransform="matrix(1 0 0 -1 -292.8008 -925.1133)" x1="312.8286" x2="308.7215" gradientUnits="userSpaceOnUse" y1="-960.2319" y2="-960.2319" id="svg2.SVGID_1_">
	<stop offset="0" style="stop-color:#808080"/>
	<stop offset="0.2115" style="stop-color:#838383"/>
	<stop offset="0.3411" style="stop-color:#8B8B8B"/>
	<stop offset="0.4484" style="stop-color:#999999"/>
	<stop offset="0.498" style="stop-color:#A3A3A3"/>
	<stop offset="0.7818" style="stop-color:#B3B3B3"/>
	<stop offset="1" style="stop-color:#B3B3B3"/>
</linearGradient>
<path fill="url(#svg2.SVGID_1_)" d="M19.16,50.017c0,0.646-0.529,1.176-1.176,1.176h-0.142c-0.646,0-1.176-0.528-1.176-1.176V20.223  c0-0.647,0.529-1.176,1.176-1.176h0.142c0.646,0,1.176,0.529,1.176,1.176V50.017z"/>
<linearGradient gradientTransform="matrix(1 0 0 -1 -292.8008 -925.1133)" x1="342.2319" x2="338.1219" gradientUnits="userSpaceOnUse" y1="-960.2319" y2="-960.2319" id="svg2.SVGID_2_">
	<stop offset="0" style="stop-color:#808080"/>
	<stop offset="0.2115" style="stop-color:#838383"/>
	<stop offset="0.3411" style="stop-color:#8B8B8B"/>
	<stop offset="0.4484" style="stop-color:#999999"/>
	<stop offset="0.498" style="stop-color:#A3A3A3"/>
	<stop offset="0.7818" style="stop-color:#B3B3B3"/>
	<stop offset="1" style="stop-color:#B3B3B3"/>
</linearGradient>
<path fill="url(#svg2.SVGID_2_)" d="M48.562,50.017c0,0.646-0.529,1.176-1.176,1.176h-0.141c-0.647,0-1.177-0.528-1.177-1.176V20.223  c0-0.647,0.528-1.176,1.177-1.176h0.141c0.646,0,1.176,0.529,1.176,1.176V50.017z"/>
<linearGradient gradientTransform="matrix(1 0 0 -1 -292.8008 -925.1133)" x1="357.728" x2="292.4569" gradientUnits="userSpaceOnUse" y1="-981.8672" y2="-981.8672" id="svg2.SVGID_3_">
	<stop offset="0" style="stop-color:#6E6E6E"/>
	<stop offset="0.1059" style="stop-color:#707070"/>
	<stop offset="0.1647" style="stop-color:#787878"/>
	<stop offset="0.1939" style="stop-color:#808080"/>
	<stop offset="0.4146" style="stop-color:#838383"/>
	<stop offset="0.5499" style="stop-color:#8B8B8B"/>
	<stop offset="0.6622" style="stop-color:#999999"/>
	<stop offset="0.7614" style="stop-color:#AEAEAE"/>
	<stop offset="0.7818" style="stop-color:#B3B3B3"/>
</linearGradient>
<path fill="url(#svg2.SVGID_3_)" d="M63.865,54.347c0.006,0,0.018,0,0.018,0l-0.061-0.025c-0.023-0.016-0.051-0.024-0.074-0.039  l-10.436-5.17c-1.152-0.58-3.158-1.135-4.445-1.231c0,0-4.783-0.362-15.908-0.362c-9.092,0-16.355,0.406-16.355,0.406  c-1.292,0.075-3.298,0.602-4.457,1.174L2.012,54.142h0.001c-1.061,0.305-1.865,1.313-1.865,2.44v5.881  c0,1.294,1.055,2.438,2.344,2.544c0,0,11.965,0.979,30.195,0.984c18.816,0.006,30.193-0.975,30.193-0.975  c1.291-0.111,2.345-1.261,2.345-2.555v-5.881C65.222,55.646,64.662,54.787,63.865,54.347z M33.132,53.056c-0.085,0-0.17,0-0.257,0  c0.027,0,0.054,0,0.082,0C33.015,53.056,33.073,53.056,33.132,53.056z M31.578,53.058c-0.045,0-0.09,0-0.133,0  C31.488,53.058,31.533,53.058,31.578,53.058z"/>
<linearGradient gradientTransform="matrix(1 0 0 -1 -292.8008 -925.1133)" x1="343.2397" x2="307.5796" gradientUnits="userSpaceOnUse" y1="-982.0229" y2="-982.0229" id="svg2.SVGID_4_">
	<stop offset="0" style="stop-color:#3C89C9"/>
	<stop offset="0.1662" style="stop-color:#3C89C9"/>
	<stop offset="0.1939" style="stop-color:#3C89C9"/>
	<stop offset="0.7402" style="stop-color:#81C1F0"/>
	<stop offset="1" style="stop-color:#9CD7FF"/>
</linearGradient>
<path fill="url(#svg2.SVGID_4_)" d="M49.309,54.347c0.002,0,0.009,0,0.009,0l-0.031-0.025c-0.015-0.016-0.026-0.024-0.039-0.039  l-5.586-5.661c-0.613-0.579-1.688-1.136-2.373-1.231c0,0-2.551-0.363-8.479-0.363c-4.848,0-8.721,0.408-8.721,0.408  c-0.689,0.073-1.758,0.602-2.377,1.174l-5.379,5.533h0.001c-0.565,0.305-0.995,1.314-0.995,2.441l0.001,6.684  c0,1.297,0.563,2.438,1.25,2.545c0,0,6.379,0.979,16.098,0.983c10.032,0.006,16.098-0.976,16.098-0.976  c0.688-0.109,1.25-1.262,1.25-2.555v-6.684C50.033,55.646,49.734,54.787,49.309,54.347z M32.923,53.056c-0.046,0-0.092,0-0.137,0  c0.016,0,0.028,0,0.044,0C32.86,53.056,32.892,53.056,32.923,53.056z M32.095,53.058c-0.023,0-0.048,0-0.072,0  C32.046,53.058,32.07,53.058,32.095,53.058z"/>
<rect x="62.723" y="57.708" fill="#C8FF00" width="2.646" height="1.078" stroke="#717171" stroke-width="0.0588" stroke-miterlimit="10"/>
<polygon fill="#C8FF00" stroke-width="0.0588" stroke-miterlimit="10" points="36.844,60.272 40.863,60.272   40.923,62.586 36.906,62.586 " stroke="#717171"/>
<polygon fill="#C8FF00" stroke-width="0.0588" stroke-miterlimit="10" points="30.614,60.493 34.633,60.493   34.695,62.808 30.676,62.808 " stroke="#717171"/>
<polygon fill="#C8FF00" stroke-width="0.0588" stroke-miterlimit="10" points="24.384,60.272 28.403,60.272   28.465,62.586 24.447,62.586 " stroke="#717171"/>
<polygon fill="#C8FF00" stroke-width="0.0588" stroke-miterlimit="10" points="43.074,59.979 47.092,59.979   47.154,62.292 43.136,62.292 " stroke="#717171"/>
<polygon fill="#C8FF00" stroke-width="0.0588" stroke-miterlimit="10" points="18.156,59.979 22.174,59.979   22.236,62.292 18.217,62.292 " stroke="#717171"/>
<path fill="#F2F2F2" d="M45.115,50.095l-1.457-1.475  c-0.615-0.581-1.684-1.135-2.369-1.232c0,0-2.553-0.363-8.481-0.363c-4.848,0-8.721,0.408-8.721,0.408  c-0.689,0.071-1.758,0.6-2.376,1.172l-5.38,5.535h0.002c-0.566,0.307-0.995,1.313-0.995,2.44l0.001,6.687  c0,0,17.324-5.49,22.371-8.121C42.753,52.517,45.126,50.106,45.115,50.095z M32.923,53.056c-0.046,0-0.092,0-0.137,0  c0.016,0,0.028,0,0.044,0C32.86,53.056,32.892,53.056,32.923,53.056z M32.095,53.058c-0.023,0-0.048,0-0.072,0  C32.046,53.058,32.07,53.058,32.095,53.058z" enable-background="new    " opacity="0.24"/>
</svg>
      </g>
    </g>
    <g text-rendering="geometricPrecision" shape-rendering="geometricPrecision" transform="matrix(1,0,0,2.2212,841.4348,925.5729)">
      <g clip-path="url(#clipPath5)">
        <svg xml:space="preserve" opacity="1" writing-mode="lr-tb" stop-color="rgb(0, 0, 0)" shape-rendering="auto" glyph-orientation-horizontal="0deg" color-profile="auto" lighting-color="rgb(255, 255, 255)" color="rgb(0, 0, 0)" font-weight="400" alignment-baseline="auto" font-style="normal" version="1.1" color-interpolation-filters="linearrgb" text-anchor="start" stroke-linecap="butt" color-interpolation="srgb" font-variant="normal" word-spacing="normal" fill-opacity="1" text-rendering="auto" clip-path="none" text-decoration="none" letter-spacing="normal" viewBox="-0.998 -0.189 71 20" glyph-orientation-vertical="auto" display="inline" font-size-adjust="none" overflow="hidden" fill="rgb(0, 0, 0)" font-stretch="normal" stroke-dasharray="none" stroke-miterlimit="4" stop-opacity="1" color-rendering="auto" font-size="12" pointer-events="visiblepainted" mask="none" direction="ltr" baseline-shift="baseline" enable-background="new -0.998 -0.189 71 20" fill-rule="nonzero" image-rendering="auto" stroke-dashoffset="0" width="71px" marker-end="none" clip="auto" cursor="auto" stroke="none" filter="none" visibility="visible" kerning="auto" stroke-width="1" font-family="&quot;Arial&quot;,&quot;Helvetica&quot;,sans-serif" flood-opacity="1" clip-rule="nonzero" src="none" height="20px" unicode-bidi="normal" stroke-linejoin="miter" stroke-opacity="1" flood-color="rgb(0, 0, 0)" dominant-baseline="auto" marker-start="none" x="0px" marker-mid="none" y="0px">
<defs>
</defs>
<linearGradient gradientTransform="matrix(1 0 0 -1 -97.6001 -245.2793)" x1="166.2588" x2="97.0793" gradientUnits="userSpaceOnUse" y1="-255.0679" y2="-255.0679" id="svg3.SVGID_1_">
	<stop offset="0" style="stop-color:#6E6E6E"/>
	<stop offset="0.1059" style="stop-color:#707070"/>
	<stop offset="0.1647" style="stop-color:#787878"/>
	<stop offset="0.1939" style="stop-color:#808080"/>
	<stop offset="0.4146" style="stop-color:#838383"/>
	<stop offset="0.5499" style="stop-color:#8B8B8B"/>
	<stop offset="0.6622" style="stop-color:#999999"/>
	<stop offset="0.7614" style="stop-color:#AEAEAE"/>
	<stop offset="0.7818" style="stop-color:#B3B3B3"/>
</linearGradient>
<path fill="url(#svg3.SVGID_1_)" d="M67.531,7.236c0.005,0,0.017,0.002,0.017,0.002l-0.062-0.031c-0.027-0.015-0.055-0.027-0.082-0.041  l-11.06-5.477c-1.225-0.615-3.346-1.203-4.713-1.307c0,0-5.071-0.383-16.858-0.383C25.138,0,17.44,0.431,17.44,0.431  c-1.37,0.077-3.495,0.637-4.724,1.243L1.976,7.02h0.001C0.852,7.342,0,8.412,0,9.607v6.232c0,1.371,1.118,2.584,2.484,2.695  c0,0,12.681,1.037,32.001,1.043c19.943,0.006,32.001-1.031,32.001-1.031c1.365-0.118,2.481-1.336,2.481-2.707V9.607  C68.971,8.613,68.378,7.705,67.531,7.236z M34.96,5.869c-0.091,0-0.181,0-0.272,0c0.029,0,0.058,0,0.087,0  C34.837,5.869,34.898,5.869,34.96,5.869z M33.312,5.873c-0.047,0-0.094,0-0.141,0C33.218,5.873,33.265,5.873,33.312,5.873z"/>
<linearGradient gradientTransform="matrix(1 0 0 -1 -97.6001 -245.2793)" x1="161.5615" x2="102.6104" gradientUnits="userSpaceOnUse" y1="-258.8867" y2="-258.8867" id="svg3.SVGID_2_">
	<stop offset="0" style="stop-color:#3C89C9"/>
	<stop offset="0.0948" style="stop-color:#579FD8"/>
	<stop offset="0.2096" style="stop-color:#70B3E6"/>
	<stop offset="0.338" style="stop-color:#84C3F1"/>
	<stop offset="0.4855" style="stop-color:#92CFF9"/>
	<stop offset="0.6692" style="stop-color:#9AD5FE"/>
	<stop offset="1" style="stop-color:#9CD7FF"/>
</linearGradient>
<path fill="url(#svg3.SVGID_2_)" stroke-width="0.3116" d="M62.746,9.363  c-0.643-0.209-18.186-0.222-28.259-0.222C26.25,9.142,6.7,9.177,6.7,9.177h0.001c-0.961,0.274-1.689,1.19-1.689,2.212v3.878  c0,1.172,0.956,2.209,2.124,2.304c0,0,10.837,0.498,27.351,0.504c17.047,0.004,27.355-0.494,27.355-0.494  c1.167-0.101,2.121-1.142,2.121-2.313V11.39C63.962,10.539,63.389,9.572,62.746,9.363z" stroke-miterlimit="10" stroke="#8D8D8D"/>
<path fill="#FFFFFF" d="M62.746,9.363c-0.643-0.209-18.186-0.222-28.259-0.222  C26.25,9.142,6.7,9.177,6.7,9.177h0.001c-0.961,0.274-1.689,1.19-1.689,2.212v3.878l58.95-2.039v-1.839  C63.962,10.539,63.389,9.572,62.746,9.363z" enable-background="new    " opacity="0.29"/>
<rect x="66.322" y="10.801" fill="#C8FF00" width="2.805" height="1.143" stroke="#717171" stroke-width="0.0623" stroke-miterlimit="10"/>
<polygon fill="#4D4D4D" stroke-width="0.3739" stroke-miterlimit="10" points="49.29,10.748 42.436,10.748   42.436,15.734 44.512,15.734 44.512,16.412 47.213,16.412 47.212,15.734 49.29,15.734 " stroke="#D9F1FF"/>
<polygon fill="#4D4D4D" stroke-width="0.3739" stroke-miterlimit="10" points="37.79,10.748 30.935,10.748   30.935,15.734 33.012,15.734 33.012,16.412 35.713,16.412 35.712,15.734 37.79,15.734 " stroke="#D9F1FF"/>
<polygon fill="#4D4D4D" stroke-width="0.3739" stroke-miterlimit="10" points="26.29,10.748 19.435,10.748   19.435,15.734 21.512,15.734 21.512,16.412 24.213,16.412 24.212,15.734 26.29,15.734 " stroke="#D9F1FF"/>
<polygon fill="#4D4D4D" stroke-width="0.3739" stroke-miterlimit="10" points="14.79,10.748 7.935,10.748   7.935,15.734 10.012,15.734 10.012,16.412 12.713,16.412 12.712,15.734 14.79,15.734 " stroke="#D9F1FF"/>
<polygon fill="#4D4D4D" stroke-width="0.3739" stroke-miterlimit="10" points="60.79,10.748 53.936,10.748   53.936,15.734 56.012,15.734 56.012,16.412 58.713,16.412 58.712,15.734 60.79,15.734 " stroke="#D9F1FF"/>
</svg>
      </g>
    </g>
    <g stroke-linecap="butt" transform="matrix(1,0,0,1,-248,163)" fill="navy" text-rendering="geometricPrecision" shape-rendering="geometricPrecision" stroke="navy" stroke-width="6" stroke-miterlimit="1.45">
      <path fill="none" d="M263.6292 -147.4922 L1090.5042 -147.4922 L1090.5042 620.1285 L263.6292 620.1285 Z" clip-path="url(#clipPath2)"/>
    </g>
    <g stroke-linecap="butt" font-size="60px" transform="matrix(1,0,0,1,-248,163)" fill="blue" text-rendering="geometricPrecision" font-family="sans-serif" shape-rendering="geometricPrecision" stroke="blue" stroke-miterlimit="1.45">
      <text x="548.717" xml:space="preserve" y="688.4508" clip-path="url(#clipPath2)" stroke="none">DOCKER</text>
    </g>
    <g stroke-linecap="butt" transform="matrix(1,0,0,1,-248,163)" fill="green" text-rendering="geometricPrecision" shape-rendering="geometricPrecision" stroke="green" stroke-width="2" stroke-miterlimit="1.45">
      <path fill="none" d="M328.7895 -129.099 L654.9219 -129.099 L654.9219 338.5 L328.7895 338.5 Z" clip-path="url(#clipPath2)"/>
    </g>
    <g stroke-linecap="butt" font-size="35px" transform="matrix(-0,-1,1,-0,29.9111,331.9332)" fill="green" text-rendering="geometricPrecision" font-family="sans-serif" shape-rendering="geometricPrecision" stroke="green" stroke-miterlimit="1.45">
      <text x="2" xml:space="preserve" y="37.188" clip-path="url(#clipPath6)" stroke="none">CLIENT</text>
    </g>
    <g stroke-linecap="butt" transform="matrix(1,0,0,1,-248,163)" fill="maroon" text-rendering="geometricPrecision" shape-rendering="geometricPrecision" stroke="maroon" stroke-width="2" stroke-miterlimit="1.45">
      <path fill="none" d="M328.7895 371.9688 L654.9219 371.9688 L654.9219 603.3655 L328.7895 603.3655 Z" clip-path="url(#clipPath2)"/>
    </g>
    <g stroke-linecap="butt" font-size="35px" transform="matrix(-0,-1,1,-0,29.9111,724.6325)" fill="maroon" text-rendering="geometricPrecision" font-family="sans-serif" shape-rendering="geometricPrecision" stroke="maroon" stroke-miterlimit="1.45">
      <text x="2" xml:space="preserve" y="37.188" clip-path="url(#clipPath7)" stroke="none">SERVER</text>
    </g>
    <g fill="url(#linearGradient10)" text-rendering="geometricPrecision" shape-rendering="geometricPrecision" transform="matrix(1,0,0,1,-248,163)" stroke="url(#linearGradient10)">
      <path d="M727.2271 -4.3981 L1001.2271 -4.3981 L1001.2271 174.3519 L727.2271 174.3519 Z" stroke="none" clip-path="url(#clipPath2)"/>
    </g>
    <g text-rendering="geometricPrecision" stroke-miterlimit="1.45" shape-rendering="geometricPrecision" transform="matrix(1,0,0,1,-248,163)" stroke-linecap="butt">
      <path fill="none" d="M727.2271 -4.3981 L1001.2271 -4.3981 L1001.2271 174.3519 L727.2271 174.3519 Z" clip-path="url(#clipPath2)"/>
      <text x="794.2002" font-size="30px" y="-16.9899" clip-path="url(#clipPath2)" font-family="sans-serif" stroke="none" xml:space="preserve">HELPERS</text>
    </g>
    <g fill="url(#linearGradient11)" text-rendering="geometricPrecision" shape-rendering="geometricPrecision" transform="matrix(1,0,0,1,-248,163)" stroke="url(#linearGradient11)">
      <path d="M727.2271 390.0938 L1001.2271 390.0938 L1001.2271 568.8438 L727.2271 568.8438 Z" stroke="none" clip-path="url(#clipPath2)"/>
    </g>
    <g text-rendering="geometricPrecision" stroke-miterlimit="1.45" shape-rendering="geometricPrecision" transform="matrix(1,0,0,1,-248,163)" stroke-linecap="butt">
      <path fill="none" d="M727.2271 390.0938 L1001.2271 390.0938 L1001.2271 568.8438 L727.2271 568.8438 Z" clip-path="url(#clipPath2)"/>
      <text x="794.2002" font-size="30px" y="377.502" clip-path="url(#clipPath2)" font-family="sans-serif" stroke="none" xml:space="preserve">HELPERS</text>
    </g>
    <g font-size="30px" stroke-linecap="butt" transform="matrix(1,0,0,1,-248,163)" text-rendering="geometricPrecision" font-family="sans-serif" shape-rendering="geometricPrecision" stroke-miterlimit="1.45">
      <text x="823.6113" xml:space="preserve" y="41.5931" clip-path="url(#clipPath2)" stroke="none">lodash</text>
      <text x="783.6284" xml:space="preserve" y="78.346" clip-path="url(#clipPath2)" stroke="none">match-sorter</text>
      <text x="776.0918" xml:space="preserve" y="115.0989" clip-path="url(#clipPath2)" stroke="none">shallow-equal</text>
      <text x="821.9707" xml:space="preserve" y="151.8519" clip-path="url(#clipPath2)" stroke="none">sort-by</text>
    </g>
    <g font-size="30px" stroke-linecap="butt" transform="matrix(1,0,0,1,-248,163)" text-rendering="geometricPrecision" font-family="sans-serif" shape-rendering="geometricPrecision" stroke-miterlimit="1.45">
      <text x="816.1333" xml:space="preserve" y="454.5005" clip-path="url(#clipPath2)" stroke="none">bcryptjs</text>
      <text x="832.7959" xml:space="preserve" y="491.2534" clip-path="url(#clipPath2)" stroke="none">chalk</text>
      <text x="827.7861" xml:space="preserve" y="528.0063" clip-path="url(#clipPath2)" stroke="none">config</text>
    </g>
    <g text-rendering="geometricPrecision" stroke-miterlimit="1.45" stroke-width="3" shape-rendering="geometricPrecision" transform="matrix(1,0,0,1,-248,163)" stroke-linecap="butt">
      <path fill="none" d="M412.75 763.9289 L412.75 36.0258" clip-path="url(#clipPath2)"/>
      <path d="M412.75 22.2758 L405.25 37.2758 L420.25 37.2758 Z" clip-path="url(#clipPath2)" stroke="none"/>
    </g>
    <g text-rendering="geometricPrecision" stroke-miterlimit="1.45" stroke-width="3" shape-rendering="geometricPrecision" transform="matrix(1,0,0,1,-248,163)" stroke-linecap="butt">
      <path fill="none" d="M593.9182 20.7773 L593.9182 752.0872" clip-path="url(#clipPath2)"/>
      <path d="M593.9182 765.8372 L601.4182 750.8372 L586.4182 750.8372 Z" clip-path="url(#clipPath2)" stroke="none"/>
    </g>
    <g text-rendering="geometricPrecision" stroke-miterlimit="1.45" stroke-width="2" shape-rendering="geometricPrecision" transform="matrix(1,0,0,1,-248,163)" stroke-linecap="butt">
      <path fill="none" d="M637.0132 -46.597 L705.2979 -46.5222 L860.7021 -44.938 L921.4261 -43.2124 L972.0549 -40.6381 L1013.5062 -37.0453 L1046.6979 -32.2645 L1072.5476 -26.1257 L1091.9731 -18.4593 L1105.8922 -9.0956 L1111.0736 -3.7242 L1115.2225 2.1352 L1120.882 15.4028 L1123.7882 30.877 L1124.2552 38.6629" clip-path="url(#clipPath2)"/>
    </g>
    <g text-rendering="geometricPrecision" stroke-miterlimit="1.45" stroke-width="2" shape-rendering="geometricPrecision" transform="matrix(1,0,0,1,-248,163)" stroke-linecap="butt">
      <path d="M1124.7941 47.6467 L1129.6007 33.8342 L1124.1879 37.5399 L1118.371 34.5077 Z" stroke="none" clip-path="url(#clipPath2)"/>
      <path fill="none" d="M1125.0118 90.6244 L1125.0118 317.843" clip-path="url(#clipPath2)"/>
      <path d="M1125.0118 326.843 L1130.6368 313.343 L1125.0118 316.718 L1119.3868 313.343 Z" clip-path="url(#clipPath2)" stroke="none"/>
      <path fill="none" d="M1144.8046 326.88 L1144.1077 214.687 L1143.3429 91.5927" clip-path="url(#clipPath2)"/>
      <path d="M1143.287 82.5929 L1137.746 96.1275 L1143.3499 92.7177 L1148.9957 96.0577 Z" clip-path="url(#clipPath2)" stroke="none"/>
      <path fill="none" d="M1125.0118 393.6465 L1125.0118 755.0184" stroke-width="1" clip-path="url(#clipPath2)"/>
      <path d="M1125.0118 763.0184 L1130.0118 751.0184 L1125.0118 754.0184 L1120.0118 751.0184 Z" stroke-width="1" clip-path="url(#clipPath2)" stroke="none"/>
      <path fill="none" d="M635.4736 850.4003 L646.3505 849.4835 L736.9176 844.8295 L767.1167 843.1689 L790.8211 840.2559 L810.7021 834.8181 L829.4308 825.5829 L846.7382 815.4095 L863.154 807.7643 L882.5471 802.2864 L908.7867 798.6143 L945.7419 796.387 L997.2816 795.2432 L1081.443 794.9935" clip-path="url(#clipPath2)"/>
      <path d="M1090.443 794.9668 L1076.9264 789.3819 L1080.318 794.9969 L1076.9597 800.6319 Z" clip-path="url(#clipPath2)" stroke="none"/>
      <path fill="none" d="M1139.9453 762.9451 L1139.9453 402.6404" clip-path="url(#clipPath2)"/>
      <path d="M1139.9453 393.6404 L1134.3203 407.1404 L1139.9453 403.7654 L1145.5703 407.1404 Z" clip-path="url(#clipPath2)" stroke="none"/>
      <path fill="none" d="M744.7733 104.7005 L665.8998 104.7005" stroke-width="4" clip-path="url(#clipPath2)"/>
      <path d="M654.8998 104.7005 L671.3998 111.5755 L667.2748 104.7005 L671.3998 97.8255 Z" stroke-width="4" clip-path="url(#clipPath2)" stroke="none"/>
      <path fill="none" d="M744.7733 487.6671 L664.8998 487.6671" stroke-width="3" clip-path="url(#clipPath2)"/>
      <path d="M654.8998 487.6671 L669.8998 493.9171 L666.1498 487.6671 L669.8998 481.4171 Z" stroke-width="3" clip-path="url(#clipPath2)" stroke="none"/>
    </g>
  </g>
</svg>
